
<svg version="1.1" id="Layer_1" xmlns="http://www.w3.org/2000/svg" xmlns:xlink="http://www.w3.org/1999/xlink" x="0px" y="0px"
	 width="100%" viewBox="0 0 496 496" enable-background="new 0 0 496 496" xml:space="preserve">
<path fill="#000000" opacity="1.000000" stroke="none" 
	d="
M225.678009,389.935730 
	C225.676193,380.381744 225.681168,380.421539 234.528915,379.316284 
	C240.783264,378.535034 247.163422,378.722748 253.248093,376.613403 
	C261.884888,373.619354 265.223053,367.520233 264.372498,358.449005 
	C262.672729,340.320648 254.136871,324.440704 248.388519,307.650543 
	C245.747925,299.937744 242.444000,292.454163 239.670807,284.783539 
	C238.566223,281.728333 237.074890,280.281830 233.573990,280.293976 
	C199.742203,280.411407 165.909821,280.375488 132.077667,280.336975 
	C129.383728,280.333893 127.317436,280.739136 126.108803,283.645721 
	C117.221519,305.018433 108.320190,326.386719 102.988770,349.004272 
	C101.968918,353.330780 100.876007,357.709747 101.641357,362.309662 
	C103.585953,373.996979 107.432220,377.198364 123.014771,379.611755 
	C123.178345,379.637085 123.350082,379.609619 123.513672,379.634888 
	C126.888039,380.155365 131.593887,378.014709 133.398758,381.061737 
	C135.625488,384.820862 134.224380,389.846710 134.103333,394.316772 
	C134.006332,397.899475 131.036240,397.185852 128.844650,397.192413 
	C111.512039,397.244446 94.179230,397.234528 76.846481,397.233582 
	C63.680260,397.232880 50.511467,397.067352 37.349270,397.293030 
	C32.965733,397.368164 31.550137,395.927338 31.583515,391.557770 
	C31.667238,380.597229 31.448668,380.409241 41.878693,378.368591 
	C56.673508,375.473999 67.188202,367.536102 73.636169,353.734619 
	C82.952644,333.793304 90.456604,313.125916 98.670921,292.747589 
	C122.323364,234.069885 145.706787,175.283752 169.192627,116.538895 
	C174.137268,104.170883 179.156647,91.831467 183.947220,79.403946 
	C185.267593,75.978706 187.094147,74.473434 190.924438,74.611809 
	C207.534256,75.211823 203.049210,71.767227 209.193542,86.938522 
	C239.634811,162.102783 269.853699,237.357117 300.302643,312.518250 
	C305.989532,326.555908 311.845642,340.552734 319.485382,353.707733 
	C322.592651,359.058228 325.922791,364.237335 330.119537,368.789185 
	C336.474243,375.681580 344.566254,378.527191 353.786011,378.912842 
	C363.072449,379.301300 363.067505,379.424194 362.997345,388.591095 
	C362.989716,389.591003 362.862640,390.605804 362.988556,391.588348 
	C363.619598,396.512482 360.979614,397.299744 356.740784,397.287384 
	C315.242493,397.166443 273.743744,397.203735 232.245148,397.190765 
	C225.800095,397.188721 225.800095,397.176361 225.678009,389.935730 
M191.648087,157.748749 
	C188.954056,151.623672 187.460938,144.979965 183.667709,138.363205 
	C167.714005,178.716385 152.085068,218.248108 136.292877,258.192749 
	C167.581223,258.192749 197.911575,258.192749 229.235229,258.192749 
	C216.603683,224.443283 204.258911,191.459991 191.648087,157.748749 
z"/>
<path fill="#000000" opacity="1.000000" stroke="none" 
	d="
M385.448120,364.949890 
	C389.934296,352.254395 400.333893,344.706665 412.274933,345.161285 
	C425.467072,345.663544 435.138367,352.916443 438.677704,364.961884 
	C442.180298,376.882233 437.893646,389.356140 427.433807,396.053314 
	C418.312866,401.893188 408.504547,402.292084 398.947845,397.229523 
	C389.716431,392.339233 384.686615,384.470367 384.628723,373.785522 
	C384.613403,370.959503 384.455902,368.111969 385.448120,364.949890 
z"/>
</svg>