<svg version="1.1" id="Layer_1" xmlns="http://www.w3.org/2000/svg" xmlns:xlink="http://www.w3.org/1999/xlink" x="0px" y="0px"
	 width="100%" viewBox="0 0 500 500" enable-background="new 0 0 500 500" xml:space="preserve">
<path fill="#000000" opacity="1.000000" stroke="none" 
	d="
M459.000000,501.000000 
	C306.000031,501.000000 153.500076,501.000000 1.000082,501.000000 
	C1.000055,334.333405 1.000055,167.666824 1.000027,1.000171 
	C167.666550,1.000114 334.333099,1.000114 500.999756,1.000057 
	C500.999817,167.666519 500.999817,334.333038 500.999908,500.999756 
	C487.166656,501.000000 473.333344,501.000000 459.000000,501.000000 
M127.687973,276.979889 
	C126.262917,276.668304 124.848763,276.289032 123.410820,276.057434 
	C118.355583,275.243256 117.269196,273.498505 118.914276,268.623932 
	C120.191307,264.839935 121.661560,261.114136 122.770638,257.282776 
	C123.586998,254.462631 125.030647,253.324738 128.078217,253.246521 
	C142.556183,252.874985 142.553757,252.789185 147.459732,266.381561 
	C147.572739,266.694641 147.714050,266.997498 147.826523,267.310730 
	C150.281982,274.149597 149.445297,275.403107 142.270157,276.120483 
	C140.996552,276.247772 139.789764,277.043304 138.552139,277.530273 
	C138.741745,277.879395 138.931351,278.228546 139.120972,278.577667 
	C149.945129,278.577667 160.769287,278.577667 172.381836,278.577667 
	C171.364471,277.358917 170.952682,276.370728 170.412674,276.294861 
	C164.686890,275.490234 162.709579,271.388947 161.051956,266.553436 
	C156.410446,253.013641 151.510284,239.562485 146.704880,226.078964 
	C142.639908,214.673035 142.635330,214.672958 130.385971,215.313095 
	C130.063492,215.329971 129.748184,215.484009 129.376282,215.589127 
	C129.105072,216.841263 128.954346,218.158890 128.534012,219.384033 
	C122.755127,236.227081 117.122986,253.125519 110.939171,269.819336 
	C109.982536,272.401855 106.460533,274.037872 104.114296,276.099548 
	C103.400757,276.726532 102.651672,277.313049 100.981712,278.691833 
	C103.756294,278.852264 105.183907,279.008728 106.611069,279.004730 
	C113.436974,278.985748 120.262924,278.935364 127.087875,278.831696 
	C127.356033,278.827637 127.614227,278.168274 127.687973,276.979889 
M365.714294,264.426086 
	C365.713226,260.431549 365.824921,256.433197 365.689941,252.443207 
	C365.288544,240.577042 356.486389,234.269028 345.164032,238.048721 
	C341.884949,239.143356 339.046204,241.557114 335.286377,243.794067 
	C335.286377,230.671936 335.286377,217.887207 335.286377,204.328857 
	C328.791687,207.420044 323.229584,210.067383 317.667450,212.714706 
	C317.375336,213.170135 317.083221,213.625549 316.791107,214.080963 
	C325.982422,214.056061 324.278625,219.972168 324.282135,224.936279 
	C324.292206,239.250046 324.194275,253.564774 324.343140,267.876984 
	C324.385559,271.954834 323.893921,275.229858 319.085358,275.924042 
	C317.918274,276.092560 316.750519,276.256500 315.583069,276.422546 
	C316.258392,277.181671 316.933685,277.940796 317.609009,278.699921 
	C325.776245,278.699921 333.943512,278.699921 342.110748,278.699921 
	C341.575623,276.994293 340.488098,276.411896 339.576904,275.625275 
	C338.168304,274.409241 335.800323,273.114319 335.723480,271.746948 
	C335.342102,264.960419 335.165680,258.104309 335.737061,251.342010 
	C336.140961,246.562225 342.690521,242.551407 347.824829,243.008072 
	C352.513550,243.425095 354.147644,245.598938 354.418274,252.338196 
	C354.638367,257.819366 354.559509,263.311890 354.714874,268.796509 
	C354.815491,272.349609 353.794739,274.911652 349.945831,275.853699 
	C349.013855,276.081818 348.330048,277.323608 347.119659,278.500244 
	C356.319672,278.500244 364.453979,278.500244 372.588318,278.500244 
	C373.262268,277.955200 373.936188,277.410156 374.610138,276.865112 
	C365.877655,276.176910 364.893036,271.276703 365.714294,264.426086 
M221.305771,267.344666 
	C221.163010,260.715302 221.652740,253.995789 220.724014,247.478424 
	C219.443954,238.495560 214.150665,235.316910 205.312683,237.508270 
	C201.979645,238.334702 198.871735,240.074020 195.667297,241.411804 
	C194.396744,241.942200 193.142776,242.512314 191.483932,243.238205 
	C191.325348,240.083008 191.199188,237.573044 191.043900,234.483582 
	C184.656662,237.523849 179.095444,240.170929 173.534225,242.818008 
	C173.094833,243.420914 172.655441,244.023819 172.216049,244.626724 
	C182.322418,243.668472 180.194336,249.806351 180.268280,254.602386 
	C180.340088,259.260315 180.113571,263.928314 180.336548,268.576660 
	C180.521042,272.422821 179.448776,275.004944 175.383286,275.938049 
	C174.501144,276.140533 173.836395,277.290100 172.429337,278.602325 
	C181.828049,278.602325 189.989151,278.602325 199.046951,278.602325 
	C197.901703,277.266937 197.423035,276.152496 196.782562,276.050049 
	C191.709717,275.238922 191.121399,271.750763 191.273972,267.556000 
	C191.419022,263.567841 191.305084,259.570221 191.305130,255.576782 
	C191.305206,247.521957 192.181442,246.330963 199.735428,244.117249 
	C205.807495,242.337830 209.729706,244.780426 210.141129,251.087555 
	C210.508484,256.719452 210.309509,262.388916 210.340256,268.041931 
	C210.361099,271.872253 209.204300,274.863434 205.023239,275.973816 
	C204.237823,276.182404 203.689545,277.283966 202.417587,278.617401 
	C204.593170,278.817474 205.694366,279.002808 206.796173,279.006531 
	C214.403076,279.032227 222.010117,279.020050 229.617111,279.020050 
	C229.785904,278.574860 229.954712,278.129639 230.123505,277.684448 
	C229.005981,277.008667 227.963013,275.971191 226.757416,275.722748 
	C222.597366,274.865356 220.758224,272.516022 221.305771,267.344666 
M302.664276,259.359497 
	C306.503265,252.221954 306.129700,242.478622 315.890198,239.018188 
	C311.919128,236.438568 298.627319,236.636841 295.176025,239.406067 
	C296.567566,240.001068 297.657135,240.608795 298.825165,240.938583 
	C301.785919,241.774551 303.096252,243.704727 302.097565,246.560608 
	C299.544708,253.860886 296.763123,261.081207 293.693268,269.357300 
	C290.296112,262.082794 287.424652,255.916992 284.538513,249.758057 
	C281.132233,242.489212 281.127350,242.493118 288.058655,239.281784 
	C288.151642,239.238693 288.145447,238.981506 288.185516,238.824234 
	C285.019714,236.359024 265.596558,236.564056 263.075928,238.742233 
	C265.656677,241.303375 269.074860,243.438675 270.683746,246.518982 
	C276.383209,257.430908 281.466583,268.664673 286.776276,279.779907 
	C287.205872,280.679230 288.185272,281.958893 287.889252,282.463531 
	C284.491272,288.256256 284.975098,296.357086 277.446991,299.783722 
	C276.042450,300.423065 275.335297,302.594391 274.306305,304.058716 
	C276.061371,305.033752 278.269073,307.192017 279.474701,306.730774 
	C281.788177,305.845734 284.426941,303.856873 285.368073,301.657318 
	C291.258484,287.890533 296.717529,273.939148 302.664276,259.359497 
M257.141266,259.417816 
	C252.858963,256.302307 248.402664,253.390060 244.392075,249.957077 
	C243.053055,248.810898 242.313522,246.327072 242.333511,244.465820 
	C242.345795,243.320770 244.340668,241.243164 245.399567,241.271881 
	C247.304169,241.323502 249.476730,242.285568 250.967422,243.542953 
	C252.261765,244.634735 252.639328,246.751328 253.681335,248.232620 
	C254.148483,248.896667 255.243195,249.412277 256.064178,249.428253 
	C256.584503,249.438370 257.380524,248.493332 257.616577,247.823029 
	C259.595612,242.202942 257.003143,237.922974 251.064590,236.852249 
	C243.981155,235.575104 235.611252,239.342743 233.275146,244.860016 
	C230.945419,250.362198 234.034119,256.926270 241.040665,261.538025 
	C243.667770,263.267212 246.422501,264.896576 248.722351,267.004272 
	C251.403198,269.461151 251.453232,274.113861 249.027176,275.880920 
	C245.790894,278.238098 242.976227,276.587067 240.668884,274.237732 
	C239.429428,272.975708 238.926208,271.016541 237.782501,269.625397 
	C237.029343,268.709290 235.726776,268.244904 234.670242,267.578217 
	C234.208252,268.673737 233.329651,269.782257 233.363327,270.862305 
	C233.459763,273.953796 233.926315,277.033691 234.182449,279.494598 
	C238.319427,279.790619 241.787994,280.155518 245.264465,280.261658 
	C251.253204,280.444519 256.649414,278.785431 259.754211,273.332489 
	C262.459717,268.580750 260.876434,264.018402 257.141266,259.417816 
M387.268250,265.392731 
	C381.508972,266.413666 378.797760,268.944824 378.857208,273.245087 
	C378.910889,277.126953 382.045105,280.503754 385.957947,280.895447 
	C389.824341,281.282471 393.483704,278.561127 394.323517,274.674225 
	C395.225494,270.499847 393.136261,267.510712 387.268250,265.392731 
z"/>
<path fill="#F6F6F6" opacity="1.000000" stroke="none" 
	d="
M127.782516,277.397095 
	C127.614227,278.168274 127.356033,278.827637 127.087875,278.831696 
	C120.262924,278.935364 113.436974,278.985748 106.611069,279.004730 
	C105.183907,279.008728 103.756294,278.852264 100.981712,278.691833 
	C102.651672,277.313049 103.400757,276.726532 104.114296,276.099548 
	C106.460533,274.037872 109.982536,272.401855 110.939171,269.819336 
	C117.122986,253.125519 122.755127,236.227081 128.534012,219.384033 
	C128.954346,218.158890 129.105072,216.841263 129.376282,215.589127 
	C129.748184,215.484009 130.063492,215.329971 130.385971,215.313095 
	C142.635330,214.672958 142.639908,214.673035 146.704880,226.078964 
	C151.510284,239.562485 156.410446,253.013641 161.051956,266.553436 
	C162.709579,271.388947 164.686890,275.490234 170.412674,276.294861 
	C170.952682,276.370728 171.364471,277.358917 172.381836,278.577667 
	C160.769287,278.577667 149.945129,278.577667 139.120972,278.577667 
	C138.931351,278.228546 138.741745,277.879395 138.552139,277.530273 
	C139.789764,277.043304 140.996552,276.247772 142.270157,276.120483 
	C149.445297,275.403107 150.281982,274.149597 147.826523,267.310730 
	C147.714050,266.997498 147.572739,266.694641 147.459732,266.381561 
	C142.553757,252.789185 142.556183,252.874985 128.078217,253.246521 
	C125.030647,253.324738 123.586998,254.462631 122.770638,257.282776 
	C121.661560,261.114136 120.191307,264.839935 118.914276,268.623932 
	C117.269196,273.498505 118.355583,275.243256 123.410820,276.057434 
	C124.848763,276.289032 126.262917,276.668304 127.782516,277.397095 
M127.833862,242.690277 
	C127.334801,244.339493 126.835739,245.988708 126.314087,247.712570 
	C131.353516,247.712570 135.739578,247.712570 140.728790,247.712570 
	C138.363190,241.307602 136.176361,235.386642 133.989532,229.465668 
	C133.483368,229.470108 132.977203,229.474548 132.471024,229.478989 
	C131.005630,233.612106 129.540222,237.745224 127.833862,242.690277 
z"/>
<path fill="#F5F5F5" opacity="1.000000" stroke="none" 
	d="
M365.714294,264.910431 
	C364.893036,271.276703 365.877655,276.176910 374.610138,276.865112 
	C373.936188,277.410156 373.262268,277.955200 372.588318,278.500244 
	C364.453979,278.500244 356.319672,278.500244 347.119659,278.500244 
	C348.330048,277.323608 349.013855,276.081818 349.945831,275.853699 
	C353.794739,274.911652 354.815491,272.349609 354.714874,268.796509 
	C354.559509,263.311890 354.638367,257.819366 354.418274,252.338196 
	C354.147644,245.598938 352.513550,243.425095 347.824829,243.008072 
	C342.690521,242.551407 336.140961,246.562225 335.737061,251.342010 
	C335.165680,258.104309 335.342102,264.960419 335.723480,271.746948 
	C335.800323,273.114319 338.168304,274.409241 339.576904,275.625275 
	C340.488098,276.411896 341.575623,276.994293 342.110748,278.699921 
	C333.943512,278.699921 325.776245,278.699921 317.609009,278.699921 
	C316.933685,277.940796 316.258392,277.181671 315.583069,276.422546 
	C316.750519,276.256500 317.918274,276.092560 319.085358,275.924042 
	C323.893921,275.229858 324.385559,271.954834 324.343140,267.876984 
	C324.194275,253.564774 324.292206,239.250046 324.282135,224.936279 
	C324.278625,219.972168 325.982422,214.056061 316.791107,214.080963 
	C317.083221,213.625549 317.375336,213.170135 317.667450,212.714706 
	C323.229584,210.067383 328.791687,207.420044 335.286377,204.328857 
	C335.286377,217.887207 335.286377,230.671936 335.286377,243.794067 
	C339.046204,241.557114 341.884949,239.143356 345.164032,238.048721 
	C356.486389,234.269028 365.288544,240.577042 365.689941,252.443207 
	C365.824921,256.433197 365.713226,260.431549 365.714294,264.910431 
z"/>
<path fill="#F4F4F4" opacity="1.000000" stroke="none" 
	d="
M221.305710,267.824341 
	C220.758224,272.516022 222.597366,274.865356 226.757416,275.722748 
	C227.963013,275.971191 229.005981,277.008667 230.123505,277.684448 
	C229.954712,278.129639 229.785904,278.574860 229.617111,279.020050 
	C222.010117,279.020050 214.403076,279.032227 206.796173,279.006531 
	C205.694366,279.002808 204.593170,278.817474 202.417587,278.617401 
	C203.689545,277.283966 204.237823,276.182404 205.023239,275.973816 
	C209.204300,274.863434 210.361099,271.872253 210.340256,268.041931 
	C210.309509,262.388916 210.508484,256.719452 210.141129,251.087555 
	C209.729706,244.780426 205.807495,242.337830 199.735428,244.117249 
	C192.181442,246.330963 191.305206,247.521957 191.305130,255.576782 
	C191.305084,259.570221 191.419022,263.567841 191.273972,267.556000 
	C191.121399,271.750763 191.709717,275.238922 196.782562,276.050049 
	C197.423035,276.152496 197.901703,277.266937 199.046951,278.602325 
	C189.989151,278.602325 181.828049,278.602325 172.429337,278.602325 
	C173.836395,277.290100 174.501144,276.140533 175.383286,275.938049 
	C179.448776,275.004944 180.521042,272.422821 180.336548,268.576660 
	C180.113571,263.928314 180.340088,259.260315 180.268280,254.602386 
	C180.194336,249.806351 182.322418,243.668472 172.216049,244.626724 
	C172.655441,244.023819 173.094833,243.420914 173.534225,242.818008 
	C179.095444,240.170929 184.656662,237.523849 191.043900,234.483582 
	C191.199188,237.573044 191.325348,240.083008 191.483932,243.238205 
	C193.142776,242.512314 194.396744,241.942200 195.667297,241.411804 
	C198.871735,240.074020 201.979645,238.334702 205.312683,237.508270 
	C214.150665,235.316910 219.443954,238.495560 220.724014,247.478424 
	C221.652740,253.995789 221.163010,260.715302 221.305710,267.824341 
z"/>
<path fill="#F0F0F0" opacity="1.000000" stroke="none" 
	d="
M302.491821,259.704193 
	C296.717529,273.939148 291.258484,287.890533 285.368073,301.657318 
	C284.426941,303.856873 281.788177,305.845734 279.474701,306.730774 
	C278.269073,307.192017 276.061371,305.033752 274.306305,304.058716 
	C275.335297,302.594391 276.042450,300.423065 277.446991,299.783722 
	C284.975098,296.357086 284.491272,288.256256 287.889252,282.463531 
	C288.185272,281.958893 287.205872,280.679230 286.776276,279.779907 
	C281.466583,268.664673 276.383209,257.430908 270.683746,246.518982 
	C269.074860,243.438675 265.656677,241.303375 263.075928,238.742233 
	C265.596558,236.564056 285.019714,236.359024 288.185516,238.824234 
	C288.145447,238.981506 288.151642,239.238693 288.058655,239.281784 
	C281.127350,242.493118 281.132233,242.489212 284.538513,249.758057 
	C287.424652,255.916992 290.296112,262.082794 293.693268,269.357300 
	C296.763123,261.081207 299.544708,253.860886 302.097565,246.560608 
	C303.096252,243.704727 301.785919,241.774551 298.825165,240.938583 
	C297.657135,240.608795 296.567566,240.001068 295.176025,239.406067 
	C298.627319,236.636841 311.919128,236.438568 315.890198,239.018188 
	C306.129700,242.478622 306.503265,252.221954 302.491821,259.704193 
z"/>
<path fill="#F3F3F3" opacity="1.000000" stroke="none" 
	d="
M257.377502,259.691254 
	C260.876434,264.018402 262.459717,268.580750 259.754211,273.332489 
	C256.649414,278.785431 251.253204,280.444519 245.264465,280.261658 
	C241.787994,280.155518 238.319427,279.790619 234.182449,279.494598 
	C233.926315,277.033691 233.459763,273.953796 233.363327,270.862305 
	C233.329651,269.782257 234.208252,268.673737 234.670242,267.578217 
	C235.726776,268.244904 237.029343,268.709290 237.782501,269.625397 
	C238.926208,271.016541 239.429428,272.975708 240.668884,274.237732 
	C242.976227,276.587067 245.790894,278.238098 249.027176,275.880920 
	C251.453232,274.113861 251.403198,269.461151 248.722351,267.004272 
	C246.422501,264.896576 243.667770,263.267212 241.040665,261.538025 
	C234.034119,256.926270 230.945419,250.362198 233.275146,244.860016 
	C235.611252,239.342743 243.981155,235.575104 251.064590,236.852249 
	C257.003143,237.922974 259.595612,242.202942 257.616577,247.823029 
	C257.380524,248.493332 256.584503,249.438370 256.064178,249.428253 
	C255.243195,249.412277 254.148483,248.896667 253.681335,248.232620 
	C252.639328,246.751328 252.261765,244.634735 250.967422,243.542953 
	C249.476730,242.285568 247.304169,241.323502 245.399567,241.271881 
	C244.340668,241.243164 242.345795,243.320770 242.333511,244.465820 
	C242.313522,246.327072 243.053055,248.810898 244.392075,249.957077 
	C248.402664,253.390060 252.858963,256.302307 257.377502,259.691254 
z"/>
<path fill="#F3F3F3" opacity="1.000000" stroke="none" 
	d="
M387.628113,265.501221 
	C393.136261,267.510712 395.225494,270.499847 394.323517,274.674225 
	C393.483704,278.561127 389.824341,281.282471 385.957947,280.895447 
	C382.045105,280.503754 378.910889,277.126953 378.857208,273.245087 
	C378.797760,268.944824 381.508972,266.413666 387.628113,265.501221 
z"/>
<path fill="#090909" opacity="1.000000" stroke="none" 
	d="
M127.954338,242.284317 
	C129.540222,237.745224 131.005630,233.612106 132.471024,229.478989 
	C132.977203,229.474548 133.483368,229.470108 133.989532,229.465668 
	C136.176361,235.386642 138.363190,241.307602 140.728790,247.712570 
	C135.739578,247.712570 131.353516,247.712570 126.314087,247.712570 
	C126.835739,245.988708 127.334801,244.339493 127.954338,242.284317 
z"/>
</svg>