<?xml version="1.0" encoding="UTF-8"?>
<!DOCTYPE svg PUBLIC "-//W3C//DTD SVG 1.1//EN" "http://www.w3.org/Graphics/SVG/1.1/DTD/svg11.dtd">
<!-- Creator: CorelDRAW 2019 (64-Bit) -->
<svg xmlns="http://www.w3.org/2000/svg" xml:space="preserve" width="2480px" height="3508px" version="1.1" style="shape-rendering:geometricPrecision; text-rendering:geometricPrecision; image-rendering:optimizeQuality; fill-rule:evenodd; clip-rule:evenodd"
viewBox="0 0 2480 3507.43"
 xmlns:xlink="http://www.w3.org/1999/xlink">
 <defs>
  <style type="text/css">
   <![CDATA[
    .fil0 {fill:#FEFEFE}
   ]]>
  </style>
 </defs>
 <g id="Layer_x0020_1">
  <metadata id="CorelCorpID_0Corel-Layer"/>
  <path class="fil0" d="M778.68 1949.57l0 -426.87 426.86 0 0 426.87 -426.86 0zm77.61 -77.61l271.64 0 0 -271.65 -271.64 0 0 271.65zm-77.61 582.09l0 -426.87 426.86 0 0 426.87 -426.86 0zm77.61 -77.61l271.64 0 0 -271.65 -271.64 0 0 271.65zm426.87 -426.87l0 -426.87 426.86 0 0 426.87 -426.86 0zm77.6 -77.61l271.65 0 0 -271.65 -271.65 0 0 271.65zm243.19 582.09l0 -106.08 106.07 0 0 106.08 -106.07 0zm-320.79 -319.51l0 -107.36 106.07 0 0 107.36 -106.07 0zm106.07 106.07l0 -106.07 107.36 0 0 106.07 -107.36 0zm-106.07 107.36l0 -107.36 106.07 0 0 107.36 -106.07 0zm106.07 106.08l0 -106.08 107.36 0 0 106.08 -107.36 0zm107.36 -106.08l0 -107.36 107.36 0 0 107.36 -107.36 0zm0 -213.43l0 -107.36 107.36 0 0 107.36 -107.36 0zm107.36 106.07l0 -106.07 106.07 0 0 106.07 -106.07 0z"/>
 </g>
</svg>
