<?xml version="1.0" encoding="UTF-8"?>
<!DOCTYPE svg PUBLIC "-//W3C//DTD SVG 1.1//EN" "http://www.w3.org/Graphics/SVG/1.1/DTD/svg11.dtd">
<!-- Creator: CorelDRAW 2019 (64-Bit) -->
<svg xmlns="http://www.w3.org/2000/svg" xml:space="preserve" width="2480px" height="3508px" version="1.1" style="shape-rendering:geometricPrecision; text-rendering:geometricPrecision; image-rendering:optimizeQuality; fill-rule:evenodd; clip-rule:evenodd"
viewBox="0 0 2480 3507.43"
 xmlns:xlink="http://www.w3.org/1999/xlink">
 <defs>
  <style type="text/css">
   <![CDATA[
    .fil0 {fill:#FEFEFE}
   ]]>
  </style>
 </defs>
 <g id="Layer_x0020_1">
  <metadata id="CorelCorpID_0Corel-Layer"/>
  <path class="fil0" d="M1183.76 1749.03l0 -51.56 51.55 0 0 51.56 -51.55 0zm9.37 -9.38l32.81 0 0 -32.81 -32.81 0 0 32.81zm-9.37 70.31l0 -51.56 51.55 0 0 51.56 -51.55 0zm9.37 -9.38l32.81 0 0 -32.81 -32.81 0 0 32.81zm51.56 -51.55l0 -51.56 51.55 0 0 51.56 -51.55 0zm9.37 -9.38l32.81 0 0 -32.81 -32.81 0 0 32.81zm29.37 70.31l0 -12.81 12.81 0 0 12.81 -12.81 0zm-38.74 -38.59l0 -12.97 12.81 0 0 12.97 -12.81 0zm12.81 12.81l0 -12.81 12.97 0 0 12.81 -12.97 0zm-12.81 12.97l0 -12.97 12.81 0 0 12.97 -12.81 0zm12.81 12.81l0 -12.81 12.97 0 0 12.81 -12.97 0zm12.97 -12.81l0 -12.97 12.96 0 0 12.97 -12.96 0zm0 -25.78l0 -12.97 12.96 0 0 12.97 -12.96 0zm12.96 12.81l0 -12.81 12.81 0 0 12.81 -12.81 0z"/>
 </g>
</svg>
